PathFileType	4	(X/Y/Z)	Patient4_TMGait_0pt8_01_left_11.trc.trc
DataRate	CameraRate	NumFrames	NumMarkers	Units	OrigDataRate	OrigDataStartFrame	OrigNumFrames
86.419753086420	86.419753086420	6	33	mm	86.419753086420	1	       141
Frame#	Time	Sacral			L.Shoulder			Chest			R.Shoulder			Neck			R.ASIS			L.ASIS			R.Thigh.Superior			R.Thigh.Lateral			R.Thigh.Inferior			R.Patella			L.Thigh.Superior			L.Thigh.Lateral			L.Thigh.Inferior			L.Patella			L.Shank.Superior			L.Shank.Lateral			L.Shank.Inferior			R.Shank.Superior			R.Shank.Lateral			R.Shank.Inferior			R.Heel			R.Midfoot.Superior			R.Midfoot.Lateral			R.Toe			L.Heel			L.Midfoot.Lateral			L.Midfoot.Superior			L.Toe			L.Elbow			L.Wrist			R.Elbow			R.Wrist			
		X1	Y1	Z1	X2	Y2	Z2	X3	Y3	Z3	X4	Y4	Z4	X5	Y5	Z5	X6	Y6	Z6	X7	Y7	Z7	X8	Y8	Z8	X9	Y9	Z9	X10	Y10	Z10	X11	Y11	Z11	X12	Y12	Z12	X13	Y13	Z13	X14	Y14	Z14	X15	Y15	Z15	X16	Y16	Z16	X17	Y17	Z17	X18	Y18	Z18	X19	Y19	Z19	X20	Y20	Z20	X21	Y21	Z21	X22	Y22	Z22	X23	Y23	Z23	X24	Y24	Z24	X25	Y25	Z25	X26	Y26	Z26	X27	Y27	Z27	X28	Y28	Z28	X29	Y29	Z29	X30	Y30	Z30	X31	Y31	Z31	X32	Y32	Z32	X33	Y33	Z33	

1	11.480000000000	857.621923551332	1009.354994626635	533.022213476224	1010.769946467138	1444.971837294652	348.919129316716	1127.563974350840	1374.342649283666	500.410386217532	1055.003702421106	1438.782721189515	682.786007727698	1002.253160267491	1500.343198135073	505.933243667612	1091.755612078236	949.737011184787	635.565271270770	1060.071166392924	967.911836245289	363.469241101937	1125.322842014717	745.898746947862	612.457622601300	1038.908663602919	637.531823625326	669.456444286325	1118.292671421202	583.778829865375	592.740119936518	1114.363679788535	495.201362327978	598.047754036641	1138.313886914905	777.055448218337	379.155823163910	1077.778827039411	651.237077321583	306.312409117938	1186.928255448550	584.526130118770	352.480293572145	1194.734523787786	493.908167251584	344.294843148535	1123.392641933727	430.031086922069	345.812183938052	974.879780343327	396.953350648549	313.250874522289	960.888013936422	269.231407748311	370.603528535752	1084.168548356117	407.717857090151	602.485742705008	1006.576871684885	304.478376777782	657.597885269902	1051.985951624554	209.968051705834	595.299952143953	917.044929919202	46.079933819861	552.715486940520	1088.397734878802	98.018969605028	597.094463093544	997.502936848155	37.229114934431	630.093234866809	1206.032204665253	43.024079927742	627.500410666467	770.986640711499	210.858635249930	430.957180043398	817.869933578387	167.294483667685	342.435938950877	925.240638703201	172.985011115302	352.146226616229	996.946540419209	61.643119456938	310.073484292762	987.005834290865	1091.823869111979	234.798176082457	1163.883280746144	897.887041257786	234.252751026978	1041.649170041980	1086.043227984862	799.145720296392	1127.279753837880	839.854033983757	798.383418850406	
2	11.491571428571	856.169635798619	1009.921271799381	534.825883391661	1008.664893088901	1444.920172971841	349.758108781097	1126.505730620064	1374.347948192108	500.456612044177	1055.502646023590	1439.089782033060	683.354155802599	1001.447418391163	1500.533112653076	506.728472091499	1090.583392390882	949.676549809288	636.182077990434	1057.712993344628	968.316318561466	364.200826349891	1121.319936848660	745.155311428382	612.172940199441	1033.971797795290	637.566975643721	669.820926282812	1111.615994703425	582.945884113113	592.779879178278	1106.465589948837	494.836758504295	597.986696501290	1138.610774547323	780.959859655211	379.499436770812	1081.057025997130	654.285302618113	305.894770913314	1191.575614903331	590.039606287340	351.899322216615	1201.847270440251	500.119290416227	343.497083499490	1133.469302628751	434.043615562803	345.047325440551	987.068043682759	394.092438961082	312.510111386908	979.361581012928	265.912196456408	369.396960399034	1076.107299040903	407.470897848700	602.423419171858	998.314952328996	304.515447190561	657.674627762706	1043.041673587872	209.828870922700	595.194285862445	907.283016670277	46.208633468421	552.770984972600	1078.690486776076	97.937889437239	597.047915337805	987.800050955556	37.314456725243	630.176426158153	1196.268844686306	42.793967428009	627.490517694755	793.234794879444	198.630766180471	429.525868255417	841.927524178255	157.429966437800	341.020411311699	948.655375353672	168.190630385814	350.671366772274	1025.318197412645	60.685073326227	308.542851393498	980.334206947043	1091.396196106186	238.364296836893	1139.532666167347	885.622890476730	237.208417282466	1055.506607873898	1086.819628037533	799.716183824458	1154.417091871603	846.795498483702	796.995731188100	
3	11.503142857143	854.738559099503	1010.440992553432	536.576858784037	1006.601412337420	1444.816565900519	350.563180586719	1125.466489456584	1374.310974024071	500.487893256864	1055.993678601161	1439.362428752010	683.889268249946	1000.681025210298	1500.673492108976	507.514600321741	1089.415948593209	949.564752732020	636.772157830531	1055.381781457692	968.672943906043	364.907783439717	1117.347994080115	744.372436316890	611.847860774731	1029.053060450828	637.565856716175	670.159303079223	1104.973558923218	582.084955313086	592.774909267991	1098.613405052955	494.443552585883	597.875576275420	1138.847440793006	784.742382700257	379.885768697686	1084.253869078617	657.249862827372	305.518418421304	1196.048912485613	595.401225910616	351.438373390424	1208.740274376055	506.200395386247	342.779046844260	1143.331751607218	437.970612576905	344.301130302492	999.100757862880	391.150870979462	311.781871345448	997.736766540940	262.546396468413	368.126835478804	1068.099483267664	407.194636021475	602.315507702831	990.124085873439	304.515694225466	657.721433581189	1034.177238002187	209.662501887381	595.054342803408	897.631810792833	46.301016819496	552.809043187403	1069.080446990010	97.853017986257	596.984685239184	978.201022650008	37.385683096388	630.243315947364	1186.614228837360	42.582151596858	627.485245430506	815.491298128132	186.352145509070	428.032130265081	865.945359800406	147.560823380502	339.513444708792	971.987715512072	163.384534547748	349.106197873631	1053.572205653311	59.771275276422	306.858024418763	973.743199756814	1090.923087169024	241.867166511569	1115.305729144269	873.783215748477	240.091634518924	1069.127278569187	1087.662791404665	800.277200139109	1181.209953110050	853.901526739411	795.535658244541	
4	11.514714285714	853.343584370275	1010.863657425378	538.223742213283	1004.619058899761	1444.596918309517	351.293510097023	1124.468120696339	1374.172257581156	500.476756031848	1056.480864617214	1439.553583379755	684.349782504634	999.996196909173	1500.703977814418	508.270679976450	1088.251277677135	949.342169024642	637.308844211936	1053.098464793624	968.916046301829	365.559022853031	1113.399011032768	743.497814707876	611.459722190511	1024.116651015825	637.494100954764	670.456111354128	1098.332293384544	581.161925074543	592.696678598127	1090.777912173446	493.990521168386	597.681563503151	1138.939580433742	788.257869106518	380.360234016037	1087.265923005298	660.023714466913	305.212477360055	1200.154337664329	600.436181733539	351.210673546833	1215.190065435329	512.025689198058	342.230026129767	1152.802263955242	441.742086551672	343.606347764534	1010.959874947898	388.029477406636	311.039303405788	1016.081038666862	259.122448984529	366.729999041266	1060.111423589871	406.864953810234	602.134748375106	981.986331952955	304.449143919051	657.726442733690	1025.378385879101	209.447140508299	594.856385901469	888.102790990282	46.326617909984	552.818244905321	1059.568696910473	97.763435086058	596.896296179433	968.711582777436	37.430963446500	630.281732962298	1177.078479372922	42.403653436556	627.487579486080	838.021310851165	173.961860368634	426.357953164106	890.176578804003	137.705860605199	337.801727828383	995.394188138186	158.618946610114	347.368424254517	1081.857057579031	59.083147691366	304.940751837702	967.202447069758	1090.383670230402	245.239802208153	1091.173119505106	862.791054562496	242.850464651887	1082.364819700135	1088.652622570619	800.804813590553	1207.467903601846	861.524918835406	793.882970275876	
5	11.526285714286	851.994868653688	1011.147760535545	539.725396334778	1002.750608710795	1444.206357465167	351.915100226649	1123.530473908841	1373.877582719805	500.397912906751	1056.972296740473	1439.620412584076	684.700174760199	999.428099531070	1500.572276972156	508.975441978053	1087.085931722589	948.958392666200	637.769650150185	1050.879928904147	968.987363732383	366.127534061215	1109.454590497515	742.486197315065	611.001791285513	1019.118271414743	637.325271756430	670.701150084260	1091.647724756161	580.147878074166	592.532310995266	1082.917358277142	493.451557952965	597.389109691809	1138.814385395209	791.379903413641	380.958902190439	1090.001173339363	662.510453820300	304.998078295821	1203.727636765577	604.991323130677	351.305948932976	1221.015292011075	517.489499066153	341.924098940530	1161.745120209864	445.303587991821	342.996144099368	1022.671157073245	384.649424810678	310.246432457983	1034.486164561900	255.654985530173	365.160934560527	1052.092479448511	406.464085464556	601.869044103091	973.862331517991	304.293436504951	657.685447714989	1016.608738215861	209.167404386570	594.587143308599	878.680715479042	46.262937675198	552.793817010353	1050.129345050062	97.666643986071	596.775677232502	959.311408325688	37.442334171850	630.284526238102	1167.644600519752	42.269690709399	627.498232283345	861.100961451175	161.435899767342	424.392273082743	914.896391270379	127.913962492411	335.789530380181	1019.055121427807	153.974417829141	345.400105780761	1110.346749825317	58.824270569161	302.757421219341	960.647424437901	1089.770794590719	248.423552799135	1067.096201106893	852.994266335777	245.447101698960	1095.120813229416	1089.852005583415	801.275688302754	1233.064295997012	870.000188889816	791.929172107282	
6	11.537857142857	850.698728981764	1011.264903609631	541.051951082992	1001.022305621899	1443.605794911134	352.402405528358	1122.671207135218	1373.383941074626	500.230132188503	1057.478668361106	1439.528406650818	684.913397866294	999.001473167874	1500.239864340585	509.606778972398	1085.918010711048	948.378748762107	638.137862920884	1048.741773861584	968.840880008552	366.591616129098	1105.493828942601	741.305481535200	610.486325810266	1014.017736040037	637.044940026636	670.891756625869	1084.879406737760	579.024902554611	592.287442480460	1074.994443586882	492.810068425462	597.003484177415	1138.417453104051	794.006837746334	381.702650131861	1092.381265849689	664.627698994621	304.884581563606	1206.643808280939	608.941286938986	351.777705722055	1226.084024728505	522.506752305226	341.912446104821	1170.064761889499	448.615499515885	342.502460460579	1034.284011509940	380.966926893681	309.361680810360	1053.027568092839	252.192249844113	363.401098886426	1043.993097589913	405.984155613351	601.524450714693	965.707431479264	304.037726124342	657.603887081386	1007.825770549155	208.817226796221	594.246972742026	869.337306545598	46.099079523366	552.738085771160	1040.725859307910	97.559577458494	596.619488762855	949.969012274986	37.416729847031	630.250731505061	1158.283147064427	42.186266342593	627.515986586617	884.950241814144	148.815786746088	422.045583599523	940.335231113988	118.279720155832	333.414220899570	1043.117631815355	149.563749286934	343.180403120943	1139.176099977058	59.205090184474	300.335821214588	953.994148963384	1089.096083056021	251.367369761736	1043.071909190721	844.645267814237	247.858519709719	1107.335365931903	1091.298376412819	801.666875679347	1257.905502148952	879.601713085626	789.590294802263	
